<svg xmlns="http://www.w3.org/2000/svg" viewBox="0 0 456 455" width="456" height="455"><path fill="#fff" fill-rule="evenodd" d="M318.0 450.3 C307.4 449.6 281.8 445.9 266.7 442.9 C228.1 435.1 183.4 421.5 141.4 404.9 L126.2 398.9 L136.2 375.7 C141.7 363.0 146.3 352.4 146.5 352.2 C146.7 352.0 152.7 354.1 159.7 356.9 C214.0 378.2 272.1 393.8 313.2 398.0 C328.7 399.6 357.2 398.8 366.3 396.6 C384.9 392.0 394.4 384.3 398.6 370.2 C400.6 363.8 400.5 344.7 398.5 334.0 C393.8 309.2 381.9 277.9 364.0 243.3 L356.1 228.0 L365.8 222.6 C387.8 210.4 399.8 204.0 400.8 204.0 C402.0 204.0 418.8 236.9 426.0 253.5 C449.6 308.1 457.0 349.6 448.7 382.0 C436.0 431.5 391.3 454.8 318.0 450.3 Z M211.7 310.0 C175.5 300.9 146.5 268.8 137.3 227.7 C135.0 217.3 135.0 195.8 137.4 185.5 C145.2 151.6 167.6 128.3 198.5 121.9 C209.5 119.6 216.1 119.5 227.4 121.5 C261.8 127.5 292.1 155.7 304.0 192.7 C308.0 205.0 309.2 213.3 309.2 227.0 C309.2 252.1 301.2 272.8 285.0 289.1 C275.4 298.8 266.5 304.5 254.5 308.6 C243.6 312.4 223.6 313.0 211.7 310.0 Z M38.2 289.2 C34.4 281.8 24.1 255.2 20.0 242.5 C3.7 191.5 -0.1 146.8 8.6 110.0 C24.8 41.6 83.4 4.0 173.8 4.0 L189.3 4.0 L188.6 10.1 C188.3 13.5 188.0 24.9 188.0 35.5 L188.0 54.7 L170.6 55.3 C93.8 58.1 58.3 85.7 55.7 144.7 C54.3 175.7 63.9 218.6 80.9 258.5 C83.7 265.0 85.9 270.4 85.8 270.5 C85.2 271.1 41.0 293.0 40.5 293.0 C40.3 293.0 39.2 291.3 38.2 289.2 Z M241.6 258.2 C254.0 251.8 260.2 234.9 257.1 216.4 C255.3 206.1 248.3 192.3 241.2 185.2 C222.5 166.6 199.7 167.9 190.5 188.2 C186.8 196.2 186.0 209.0 188.4 219.2 C195.1 247.8 222.7 267.9 241.6 258.2 Z M318.0 105.8 C279.4 92.3 273.2 43.1 307.2 21.0 C315.4 15.7 323.6 13.7 335.2 14.2 C343.5 14.5 345.5 15.0 352.4 18.3 C362.5 23.1 369.9 30.6 374.9 40.9 C378.4 48.4 378.5 48.7 378.5 61.0 C378.5 73.4 378.5 73.6 374.8 81.0 C369.3 92.2 360.4 100.5 348.9 105.1 C340.5 108.4 326.4 108.8 318.0 105.8 Z"/></svg>