<svg xmlns="http://www.w3.org/2000/svg" viewBox="0 0 530 80" width="530" height="80"><path fill="#fff" fill-rule="evenodd" d="M55.6 74.9 C49.4 73.9 43.2 69.5 40.3 63.9 C38.2 60.0 38.0 58.4 38.0 42.3 L38.0 25.0 L43.5 25.0 L49.0 25.0 L49.0 41.1 C49.0 58.7 49.6 61.2 55.0 64.4 C60.7 67.7 67.8 65.9 71.7 60.1 C73.9 56.9 74.0 55.7 74.0 40.9 L74.0 25.0 L79.5 25.0 L85.0 25.0 L85.0 40.8 C85.0 49.4 84.5 58.2 83.9 60.3 C81.0 70.8 68.7 77.1 55.6 74.9 Z M118.5 75.1 C112.6 74.1 107.3 71.2 103.9 67.1 C98.7 60.8 98.0 56.3 98.0 28.8 L98.0 4.0 L103.5 4.0 L109.0 4.0 L109.0 18.2 L109.0 32.4 L111.8 29.7 C120.2 21.7 133.3 22.2 142.1 31.0 C147.5 36.4 149.0 40.5 149.0 50.0 C149.0 67.0 135.7 77.9 118.5 75.1 Z M278.4 74.9 C276.8 74.4 274.4 73.0 273.2 71.7 C271.4 69.8 256.0 28.8 256.0 25.9 C256.0 25.3 258.5 25.0 261.8 25.2 L267.5 25.5 L274.1 44.9 C277.7 55.6 281.1 64.5 281.7 64.7 C282.3 64.9 285.9 56.1 289.6 45.1 L296.5 25.0 L302.2 25.0 C305.4 25.0 308.0 25.2 308.0 25.4 C308.0 26.4 293.1 68.0 292.0 69.9 C289.8 74.1 283.7 76.4 278.4 74.9 Z M410.3 75.0 C404.4 73.8 400.6 71.6 397.2 67.4 C392.9 62.3 392.0 57.3 392.0 40.1 L392.0 25.0 L397.5 25.0 L403.0 25.0 L403.0 40.0 C403.0 57.1 403.9 60.8 409.2 64.0 C413.1 66.4 418.0 66.6 422.0 64.5 C427.3 61.8 428.0 58.8 428.0 41.0 L428.0 24.9 L433.6 25.2 L439.2 25.5 L439.1 42.5 C438.9 56.5 438.6 60.1 437.1 63.6 C433.2 72.3 421.7 77.2 410.3 75.0 Z M467.8 75.0 C454.8 72.6 446.7 55.6 451.5 41.0 C455.8 27.9 470.2 21.1 484.4 25.4 C491.1 27.4 495.4 31.2 498.6 37.7 C501.2 43.0 501.4 44.4 501.8 58.7 L502.2 74.0 L496.1 74.0 L490.0 74.0 L490.0 69.9 L490.0 65.8 L487.4 69.0 C482.9 74.3 475.7 76.5 467.8 75.0 Z M4.0 54.9 C4.0 28.1 5.3 26.0 21.2 25.2 L30.0 24.8 L30.0 29.9 L30.0 35.0 L23.5 35.0 C18.2 35.0 16.9 35.3 16.0 36.9 C15.4 38.1 15.0 46.2 15.0 56.4 L15.0 74.0 L9.5 74.0 L4.0 74.0 L4.0 54.9 Z M172.0 71.9 C161.7 67.3 156.3 58.1 157.3 47.0 C158.7 30.7 172.8 20.8 188.5 25.1 C197.7 27.6 203.0 34.9 203.8 46.2 L204.3 53.0 L187.2 53.0 C177.2 53.0 169.9 53.4 169.5 54.0 C169.2 54.5 169.6 56.3 170.5 58.0 C173.0 62.8 178.8 65.0 189.2 65.0 L198.0 65.0 L198.0 69.5 L198.0 74.0 L187.2 74.0 C178.6 74.0 175.6 73.6 172.0 71.9 Z M214.0 55.5 C214.0 28.5 215.4 25.9 231.2 25.2 L240.0 24.8 L240.0 29.9 L240.0 35.0 L233.5 35.0 C228.2 35.0 226.9 35.3 226.0 36.9 C225.4 38.1 225.0 46.2 225.0 56.4 L225.0 74.0 L219.5 74.0 L214.0 74.0 L214.0 55.5 Z M316.2 49.8 L316.5 25.5 L321.8 25.5 C324.6 25.5 327.0 25.8 327.0 26.2 C327.0 26.7 327.0 37.6 327.0 50.5 L327.0 74.0 L321.5 74.0 L316.0 74.0 L316.2 49.8 Z M341.0 69.5 L341.0 65.0 L353.8 65.0 C365.0 65.0 366.9 64.8 368.3 63.2 C370.5 60.8 370.4 57.7 368.2 55.7 C366.8 54.4 364.4 54.0 358.1 54.0 C348.3 54.0 343.8 52.4 341.0 47.8 C338.4 43.5 338.4 36.5 341.0 32.2 C344.4 26.6 349.5 25.0 364.3 25.0 L377.1 25.0 L376.8 29.8 L376.5 34.5 L364.6 34.8 C352.1 35.1 350.0 35.8 350.0 39.4 C350.0 43.0 352.0 44.0 358.7 44.0 C374.0 44.0 380.1 47.8 380.7 57.7 C381.2 64.5 379.1 68.8 373.8 72.0 C370.9 73.8 368.7 74.0 355.8 74.0 L341.0 74.0 L341.0 69.5 Z M515.0 39.0 L515.0 4.0 L520.5 4.0 L526.0 4.0 L526.0 39.0 L526.0 74.0 L520.5 74.0 L515.0 74.0 L515.0 39.0 Z M131.1 63.7 C139.9 57.8 140.4 43.7 132.1 36.7 C129.4 34.5 127.9 34.0 123.5 34.0 C118.9 34.0 117.5 34.5 114.7 37.0 C109.1 41.9 107.6 50.3 111.0 57.7 C114.5 65.6 124.0 68.5 131.1 63.7 Z M483.1 63.7 C487.5 60.8 490.0 55.7 490.0 49.7 C490.0 39.7 484.7 34.0 475.4 34.0 C469.2 34.0 465.6 36.4 462.9 42.4 C460.5 47.6 460.5 52.4 463.0 57.7 C466.5 65.6 476.0 68.5 483.1 63.7 Z M193.0 44.4 C193.0 39.2 186.7 33.0 181.6 33.0 C176.2 33.0 170.9 37.5 169.5 43.2 L168.8 46.0 L180.9 46.0 C191.3 46.0 193.0 45.8 193.0 44.4 Z M316.6 15.8 C314.2 12.4 314.6 8.5 317.6 6.1 C319.1 4.9 321.0 4.0 322.0 4.0 C325.1 4.0 329.0 7.9 329.0 11.1 C329.0 17.3 320.0 20.7 316.6 15.8 Z"/></svg>